# xmcd
#
# Track frame offsets: 
#        150
#        8140
#        27464
#        46067
#        47783
#        71072
#        91983
#        93456
#        110602
#        116017
#        136489
#        155266
#        176107
#        193533
#        214694
#        217759
#        236825
#        256147
#        283828
#
# Disc length: 4265 seconds
#
# Revision: 3
# Processed by: cddbd v1.4PL0 Copyright (c) Steve Scherf et al.
# Submitted via: ExactAudioCopy v0.90b4
#
DISCID=1110a713
DTITLE=Sabrina Setlur - SABS
DYEAR=2003
DGENRE=Rap
TTITLE0=S muss weitergehen (Intro)
TTITLE1=Ich bin so
TTITLE2=Mein Herz
TTITLE3=Du bist auserwählt (Interlude)
TTITLE4=Die Auserwählte
TTITLE5=Was immer du da tust
TTITLE6=Am Tag danach (Interlude)
TTITLE7=Allein
TTITLE8=Bis ich wieder rappen will (Interlude)
TTITLE9=Setlurflow
TTITLE10=Feel so bad
TTITLE11=Liebe feat. Glashaus und Franziska
TTITLE12=Keine macht s besser
TTITLE13=An alle feat. Moses Pelham, Illmat!C, Cassandra Steen und Fra
TTITLE13=nziska
TTITLE14=Wichtige Meldungen (Interlude)
TTITLE15=Das Wichtigste
TTITLE16=Ja!
TTITLE17=Baby
TTITLE18=data
EXTD=
EXTT0=
EXTT1=
EXTT2=
EXTT3=
EXTT4=
EXTT5=
EXTT6=
EXTT7=
EXTT8=
EXTT9=
EXTT10=
EXTT11=
EXTT12=
EXTT13=
EXTT14=
EXTT15=
EXTT16=
EXTT17=
EXTT18=
PLAYORDER=
